<?xml version="1.0" encoding="utf-8"?>
<!-- Generator: Adobe Illustrator 24.0.0, SVG Export Plug-In . SVG Version: 6.00 Build 0)  -->
<svg version="1.1" xmlns="http://www.w3.org/2000/svg" xmlns:xlink="http://www.w3.org/1999/xlink" x="0px" y="0px"
	 viewBox="0 0 256 256" enable-background="new 0 0 256 256" xml:space="preserve">
<g id="Layer_1">
</g>
<g id="Layer_2">
</g>
<g id="Layer_3">
</g>
<g id="Layer_4">
</g>
<g id="Layer_5">
</g>
<g id="Layer_6">
</g>
<g id="Layer_7">
</g>
<g id="Layer_8">
</g>
<g id="Layer_9">
</g>
<g id="Layer_10">
</g>
<g id="Layer_11">
</g>
<g id="Layer_12">
</g>
<g id="Layer_13">
</g>
<g id="Layer_14">
</g>
<g id="Layer_15">
</g>
<g id="Layer_16">
</g>
<g id="Layer_17">
</g>
<g id="Layer_18">
</g>
<g id="Layer_19">
</g>
<g id="Layer_20">
</g>
<g id="Layer_21">
</g>
<g id="Layer_22">
</g>
<g id="Layer_23">
</g>
<g id="Layer_24">
</g>
<g id="Layer_25">
</g>
<g id="Layer_26">
</g>
<g id="Layer_27">
</g>
<g id="Layer_28">
</g>
<g id="Layer_29">
</g>
<g id="Layer_30">
</g>
<g id="Layer_31">
</g>
<g id="Layer_32">
</g>
<g id="Layer_33">
</g>
<g id="Layer_34">
</g>
<g id="Layer_35">
</g>
<g id="Layer_36">
	<g>
		<g>
			<g>
				<path fill="#ffff" d="M232.971,249.542l-17.881-43.808c-0.499-1.223-0.787-2.52-0.857-3.839
					c-0.377-7.069-2.204-31.753-9.864-48.313c-0.748-1.616-1.124-3.367-1.089-5.147c0.184-9.502-0.797-40.921-21.384-46.925
					c-16.83-4.909-29.286-7.396-35.362-14.171c-2.577-2.873-2.479-7.343,0.208-10.114c2.867-2.956,5.047-6.58,6.268-10.615
					c0.861-2.846,3.003-5.117,6.202-6.161c4.351-1.421,7.51-5.525,7.51-10.365c0-2.592-0.908-4.969-2.419-6.84
					c-0.588-0.729-0.925-1.626-0.925-2.563V23.035c0-7.524-5.395-14.168-12.846-15.21c-2.275-0.318-4.463-0.104-6.473,0.527
					c-1.908,0.599-3.967,0.126-5.359-1.309c-2.713-2.795-6.497-4.542-10.677-4.542h-7.666c-14.836,0-26.975,12.139-26.975,26.976
					v10.351c0,1.059-0.449,2.047-1.172,2.822c-1.817,1.948-2.932,4.559-2.932,7.433c0,4.838,3.162,8.954,7.527,10.371
					c3.173,1.03,5.327,3.322,6.185,6.155c1.221,4.035,3.401,7.659,6.268,10.615c2.687,2.771,2.786,7.241,0.209,10.114
					c-6.077,6.775-18.533,9.263-35.362,14.171c-20.586,6.004-21.568,37.423-21.384,46.925c0.034,1.78-0.342,3.531-1.089,5.147
					c-7.659,16.56-9.487,41.245-9.864,48.313c-0.07,1.319-0.358,2.616-0.857,3.839l-17.881,43.808
					c-0.771,1.89,0.619,3.958,2.66,3.958h21.248c1.119,0,2.136-0.65,2.606-1.665l17.889-38.602c0.394-0.85,0.704-1.735,0.927-2.645
					l11.058-45.082c0.366-1.491,2.537-1.338,2.689,0.19c3.379,33.883-2.453,72.97-4.379,84.465
					c-0.294,1.752,1.058,3.339,2.834,3.339h94.876c1.776,0,3.128-1.588,2.834-3.339c-1.925-11.495-7.758-50.582-4.378-84.465
					c0.152-1.528,2.323-1.681,2.689-0.19l11.058,45.082c0.223,0.909,0.534,1.795,0.927,2.645l17.889,38.602
					c0.471,1.015,1.487,1.665,2.606,1.665h21.248C232.353,253.5,233.743,251.431,232.971,249.542z"/>
			</g>
		</g>
		<g>
			<g>
				<path fill="#70D6F9" d="M232.971,249.542l-17.881-43.808c-0.499-1.223-0.787-2.52-0.857-3.839
					c-0.377-7.069-2.204-31.753-9.864-48.313c-0.748-1.616-1.124-3.367-1.089-5.147c0.141-7.296-0.415-27.502-9.995-39.215
					c-8.451,1.279-9.464,7.781-19.735,7.781c-11.39,0-11.39-8-22.781-8c-11.391,0-11.391,8-22.781,8c-11.39,0-11.39-8-22.781-8
					c-11.389,0-11.389,8-22.778,8c-10.263,0-11.281-6.495-19.717-7.779c-9.578,11.713-10.134,31.917-9.993,39.212
					c0.034,1.78-0.342,3.531-1.089,5.147c-7.659,16.56-9.487,41.245-9.864,48.313c-0.07,1.319-0.358,2.616-0.857,3.839
					l-17.881,43.808c-0.771,1.89,0.619,3.958,2.66,3.958h21.248c1.119,0,2.136-0.65,2.606-1.665l17.889-38.602
					c0.394-0.85,0.704-1.735,0.927-2.645l11.058-45.082c0.366-1.491,2.537-1.338,2.689,0.19c3.379,33.883-2.453,72.97-4.379,84.465
					c-0.294,1.752,1.058,3.339,2.834,3.339h94.876c1.776,0,3.128-1.588,2.834-3.339c-1.925-11.495-7.758-50.582-4.378-84.465
					c0.152-1.528,2.323-1.681,2.689-0.19l11.058,45.082c0.223,0.909,0.534,1.795,0.927,2.645l17.889,38.602
					c0.471,1.015,1.487,1.665,2.606,1.665h21.248C232.353,253.5,233.743,251.431,232.971,249.542z"/>
			</g>
		</g>
		<g>
			<g>
				<path fill="#70D6F9" d="M78.2,20.9h-2.3v-2.3c0-1.7-1.4-3.2-3.2-3.2s-3.2,1.4-3.2,3.2v2.3h-2.3c-1.7,0-3.2,1.4-3.2,3.2
					s1.4,3.2,3.2,3.2h2.3v2.3c0,1.7,1.4,3.2,3.2,3.2s3.2-1.4,3.2-3.2v-2.3h2.3c1.7,0,3.2-1.4,3.2-3.2S80,20.9,78.2,20.9z"/>
			</g>
		</g>
		<g>
			<g>
				<path fill="#F5C84C" d="M233.8,145.85c-4.5-0.8-8-4.3-8.9-8.7c0-0.2-0.4-0.2-0.4,0c-0.9,4.4-4.4,7.9-8.9,8.7
					c-0.2,0-0.2,0.3,0,0.4c4.5,0.8,8,4.3,8.9,8.7c0,0.2,0.4,0.2,0.4,0c0.9-4.4,4.4-7.9,8.9-8.7C234,146.15,234,145.85,233.8,145.85z
					"/>
			</g>
		</g>
		<g>
			<g>
				<path fill="#FC657E" d="M49.853,109.921c-2.907-0.517-5.168-2.777-5.749-5.62c0-0.129-0.258-0.129-0.258,0
					c-0.581,2.842-2.842,5.103-5.749,5.62c-0.129,0-0.129,0.194,0,0.258c2.907,0.517,5.168,2.778,5.749,5.62
					c0,0.129,0.258,0.129,0.258,0c0.581-2.842,2.842-5.103,5.749-5.62C49.982,110.115,49.982,109.921,49.853,109.921z"/>
			</g>
		</g>
		<g>
			<g>
				<path fill="#87D147" d="M224.8,168.5c-1.878,0-3.4,1.522-3.4,3.4c0,1.878,1.522,3.4,3.4,3.4c1.878,0,3.4-1.522,3.4-3.4
					C228.2,170.022,226.678,168.5,224.8,168.5z"/>
			</g>
		</g>
		<g>
			<g>
				<path fill="#F5C84C" d="M87.8,0c-1.878,0-3.4,1.522-3.4,3.4c0,1.878,1.522,3.4,3.4,3.4c1.878,0,3.4-1.522,3.4-3.4
					C91.2,1.522,89.678,0,87.8,0z"/>
			</g>
		</g>
		<g>
			<g>
				<g>
					<g>
						<path d="M235.287,248.597L235.287,248.597l-17.881-43.808c-0.392-0.961-0.62-1.98-0.675-3.028
							c-0.388-7.269-2.261-32.301-10.091-49.229c-0.597-1.291-0.886-2.654-0.859-4.05c0.102-5.248-0.153-15.541-2.998-25.509
							c-3.715-13.013-10.506-21.042-20.185-23.864c-2.779-0.811-5.439-1.555-7.971-2.264c-12.563-3.517-21.64-6.059-26.23-11.177
							c-1.685-1.878-1.621-4.886,0.142-6.705c3.183-3.283,5.557-7.305,6.866-11.631c0.652-2.155,2.28-3.756,4.584-4.509
							c5.523-1.803,9.234-6.923,9.234-12.741c0-3.05-1.056-6.037-2.974-8.41c-0.242-0.299-0.37-0.643-0.37-0.993V23.035
							c0-8.887-6.449-16.49-15-17.687c-2.569-0.358-5.117-0.151-7.568,0.618c-1.027,0.323-2.106,0.067-2.817-0.666
							c-3.317-3.417-7.747-5.3-12.471-5.3h-7.666c-16.253,0-29.476,13.223-29.476,29.475v10.352c0,0.505-0.313,0.916-0.5,1.116
							c-2.324,2.491-3.604,5.736-3.604,9.139c0,5.829,3.719,10.952,9.255,12.749c2.289,0.743,3.91,2.341,4.563,4.5
							c1.309,4.327,3.683,8.349,6.866,11.632c1.763,1.818,1.827,4.826,0.143,6.705c-4.591,5.118-13.668,7.66-26.231,11.177
							c-2.532,0.709-5.192,1.454-7.971,2.264c-9.679,2.823-16.47,10.852-20.185,23.864c-2.845,9.968-3.1,20.261-2.998,25.508
							c0.027,1.396-0.262,2.759-0.859,4.05c-7.83,16.929-9.703,41.961-10.091,49.23c-0.056,1.047-0.283,2.066-0.675,3.027
							l-17.881,43.808c-0.677,1.66-0.484,3.539,0.516,5.027c1,1.488,2.667,2.376,4.459,2.376h21.249
							c2.084,0,3.998-1.222,4.875-3.114L69.7,214.284c0.46-0.993,0.826-2.036,1.087-3.1l9.393-38.296
							c2.012,31.863-3.176,66.459-4.918,76.859c-0.261,1.559,0.174,3.145,1.195,4.351c1.023,1.208,2.519,1.902,4.105,1.902h94.876
							c1.586,0,3.082-0.693,4.105-1.902c1.021-1.206,1.457-2.792,1.195-4.351c-1.742-10.4-6.931-44.996-4.918-76.859l9.394,38.296
							c0.261,1.063,0.626,2.106,1.087,3.1l17.889,38.602c0.876,1.892,2.79,3.114,4.875,3.114h21.249
							c1.792,0,3.459-0.888,4.459-2.376C235.771,252.136,235.964,250.257,235.287,248.597z M230.621,250.835
							c-0.073,0.109-0.177,0.165-0.309,0.165h-21.249c-0.145,0-0.277-0.085-0.338-0.216l-17.888-38.602
							c-0.325-0.702-0.583-1.438-0.768-2.189l-11.058-45.083c-0.434-1.769-1.948-2.946-3.738-2.946
							c-0.096,0-0.193,0.003-0.291,0.011c-1.915,0.135-3.386,1.563-3.576,3.473c-3.414,34.228,2.505,73.81,4.4,85.126
							c0.019,0.11-0.008,0.209-0.08,0.294c-0.051,0.06-0.143,0.132-0.289,0.132H80.562c-0.146,0-0.238-0.072-0.289-0.132
							c-0.072-0.085-0.099-0.184-0.08-0.294c1.895-11.316,7.814-50.898,4.4-85.126c-0.19-1.909-1.661-3.337-3.576-3.473
							c-1.921-0.151-3.572,1.072-4.029,2.935l-11.058,45.083c-0.185,0.751-0.443,1.488-0.768,2.189l-17.889,38.602
							c-0.061,0.131-0.194,0.216-0.338,0.216H25.688c-0.132,0-0.236-0.055-0.309-0.165c-0.074-0.11-0.086-0.227-0.036-0.349
							l17.881-43.808c0.604-1.479,0.954-3.044,1.04-4.651c0.375-7.044,2.18-31.278,9.636-47.397c0.917-1.983,1.362-4.084,1.32-6.245
							c-0.175-9.043,0.719-38.975,19.584-44.477c2.76-0.805,5.403-1.545,7.918-2.249c13.377-3.745,23.042-6.451,28.605-12.653
							c3.459-3.857,3.338-9.798-0.275-13.524c-2.63-2.713-4.591-6.032-5.67-9.599c-1.125-3.717-3.97-6.563-7.805-7.808
							c-3.468-1.126-5.799-4.338-5.799-7.993c0-2.131,0.803-4.166,2.26-5.728c1.189-1.274,1.844-2.882,1.844-4.527V29.477
							c0-13.496,10.979-24.475,24.476-24.475h7.666c3.361,0,6.516,1.343,8.883,3.782c2.034,2.097,5.063,2.845,7.902,1.954
							c1.739-0.546,3.548-0.691,5.379-0.437c6.096,0.853,10.692,6.327,10.692,12.734V40.68c0,1.484,0.525,2.952,1.479,4.134
							c1.219,1.509,1.864,3.331,1.864,5.269c0,3.648-2.325,6.858-5.786,7.988c-3.847,1.256-6.697,4.104-7.819,7.814
							c-1.079,3.567-3.04,6.886-5.67,9.599c-3.613,3.726-3.734,9.667-0.274,13.524c5.563,6.202,15.228,8.908,28.605,12.653
							c2.516,0.704,5.158,1.444,7.919,2.249c18.864,5.502,19.759,35.434,19.583,44.477c-0.042,2.16,0.403,4.261,1.32,6.245
							c7.456,16.12,9.26,40.354,9.636,47.397c0.086,1.606,0.436,3.171,1.04,4.651l17.88,43.807
							C230.707,250.608,230.695,250.726,230.621,250.835z"/>
					</g>
				</g>
			</g>
		</g>
		<g>
			<g>
				<path d="M195.097,108.86c-0.259-1.356-1.574-2.246-2.924-1.987c-3.916,0.748-6.439,2.519-8.666,4.082
					c-2.71,1.902-5.051,3.545-9.957,3.545c-4.905,0-7.245-1.643-9.954-3.546c-2.973-2.088-6.342-4.454-12.827-4.454
					s-9.855,2.366-12.828,4.454c-2.709,1.903-5.048,3.546-9.954,3.546s-7.245-1.643-9.954-3.546
					c-2.973-2.088-6.342-4.454-12.827-4.454c-6.485,0-9.854,2.366-12.826,4.454c-2.708,1.903-5.048,3.546-9.952,3.546
					c-4.905,0-7.245-1.643-9.955-3.545c-2.135-1.499-4.555-3.198-8.214-3.99c-1.349-0.291-2.68,0.564-2.972,1.915
					c-0.292,1.349,0.565,2.68,1.915,2.972c2.671,0.578,4.399,1.791,6.399,3.195c2.973,2.087,6.343,4.453,12.827,4.453
					c6.485,0,9.854-2.366,12.826-4.454c2.708-1.903,5.048-3.546,9.952-3.546c4.905,0,7.244,1.643,9.953,3.546
					c2.973,2.088,6.342,4.454,12.828,4.454s9.855-2.366,12.828-4.454c2.709-1.903,5.048-3.546,9.954-3.546
					c4.905,0,7.244,1.643,9.953,3.546c2.973,2.088,6.342,4.454,12.828,4.454s9.856-2.365,12.829-4.453
					c2.077-1.458,3.871-2.716,6.731-3.263C194.467,111.526,195.356,110.216,195.097,108.86z"/>
			</g>
		</g>
		<g>
			<g>
				<path fill="#9BE5F9" d="M141.571,157.25l-11.77-16.65c-0.879-1.243-2.723-1.243-3.602,0l-11.77,16.65
					c-7.781,11.008,0.091,26.213,13.571,26.213S149.352,168.258,141.571,157.25z"/>
			</g>
		</g>
		<g>
			<g>
				<g>
					<g>
						<path d="M143.612,155.808l-11.77-16.65c-0.88-1.246-2.316-1.989-3.842-1.989s-2.962,0.744-3.842,1.989l-11.77,16.65
							c-4.141,5.858-4.665,13.456-1.366,19.827s9.804,10.329,16.979,10.329s13.68-3.958,16.979-10.329
							S147.753,161.666,143.612,155.808z M140.539,173.335c-2.473,4.776-7.16,7.627-12.539,7.627s-10.065-2.852-12.539-7.627
							c-2.473-4.776-2.095-10.25,1.009-14.642L128,142.384l11.529,16.309C142.634,163.085,143.011,168.559,140.539,173.335z"/>
					</g>
				</g>
			</g>
		</g>
	</g>
</g>
<g id="Layer_37">
</g>
<g id="Layer_38">
</g>
<g id="Layer_39">
</g>
<g id="Layer_40">
</g>
<g id="Layer_41">
</g>
<g id="Layer_42">
</g>
<g id="Layer_43">
</g>
<g id="Layer_44">
</g>
<g id="Layer_45">
</g>
<g id="Layer_46">
</g>
<g id="Layer_47">
</g>
<g id="Layer_48">
</g>
<g id="Layer_49">
</g>
<g id="Layer_50">
</g>
<g id="Layer_51">
</g>
<g id="Layer_52">
</g>
<g id="Layer_53">
</g>
<g id="Layer_54">
</g>
<g id="Layer_55">
</g>
<g id="Layer_56">
</g>
<g id="Layer_57">
</g>
<g id="Layer_58">
</g>
<g id="Layer_59">
</g>
<g id="Layer_60">
</g>
<g id="Layer_61">
</g>
<g id="Layer_62">
</g>
<g id="Layer_63">
</g>
<g id="Layer_64">
</g>
<g id="Layer_65">
</g>
<g id="Layer_66">
</g>
<g id="Layer_67">
</g>
<g id="Layer_68">
</g>
<g id="Layer_69">
</g>
<g id="Layer_70">
</g>
<g id="Layer_71">
</g>
<g id="Layer_72">
</g>
<g id="Layer_73">
</g>
<g id="Layer_74">
</g>
<g id="Layer_75">
</g>
</svg>
