<?xml version="1.0" standalone="no"?>
<!DOCTYPE svg PUBLIC "-//W3C//DTD SVG 20010904//EN"
 "http://www.w3.org/TR/2001/REC-SVG-20010904/DTD/svg10.dtd">
<svg version="1.0" xmlns="http://www.w3.org/2000/svg"
 width="500.000000pt" height="500.000000pt" viewBox="0 0 500.000000 500.000000"
 preserveAspectRatio="xMidYMid meet">

<g transform="translate(0.000000,500.000000) scale(0.100000,-0.100000)"
fill="#000000" stroke="none">
<path d="M1410 4420 l-255 -5 -3 -124 c-2 -82 1 -128 9 -137 9 -10 40 -14 124
-14 l113 0 6 -35 c10 -50 23 -52 36 -5 l11 40 112 0 c75 0 117 4 125 12 8 8
12 51 12 129 0 94 -3 121 -16 133 -8 9 -16 15 -17 14 -1 -1 -117 -5 -257 -8z"/>
<path d="M1383 3594 c-3 -8 -1 -20 5 -26 16 -16 42 -2 42 22 0 24 -38 28 -47
4z"/>
<path d="M2278 3596 c-16 -12 -16 -14 6 -26 28 -15 46 -7 46 21 0 22 -26 25
-52 5z"/>
<path d="M1835 3591 c-8 -14 12 -23 36 -16 17 6 19 9 8 16 -18 11 -36 11 -44
0z"/>
<path d="M1460 3285 l0 -255 400 0 400 0 -2 253 -3 252 -397 3 -398 2 0 -255z
m790 73 l0 -172 -42 -43 -42 -43 -118 117 -118 117 -50 -49 -50 -49 -80 79
-80 80 -100 -100 -100 -100 0 168 0 167 390 0 390 0 0 -172z"/>
<path d="M2050 3430 c-11 -11 -20 -29 -20 -39 0 -19 43 -61 62 -61 15 0 58 48
58 65 0 21 -36 55 -60 55 -11 0 -29 -9 -40 -20z"/>
<path d="M2940 3170 l0 -170 275 0 275 0 0 170 0 170 -275 0 -275 0 0 -170z
m178 73 c-21 -2 -57 -2 -80 0 -24 2 -7 4 37 4 44 0 63 -2 43 -4z m145 -40
c-34 -2 -93 -2 -130 0 -37 2 -9 3 62 3 72 0 102 -1 68 -3z m-148 -33 c4 -6
-10 -10 -34 -10 -23 0 -41 5 -41 10 0 6 15 10 34 10 19 0 38 -4 41 -10z m88
-47 c-23 -2 -64 -2 -90 0 -26 2 -7 3 42 3 50 0 71 -1 48 -3z m-95 -40 c-21 -2
-55 -2 -75 0 -21 2 -4 4 37 4 41 0 58 -2 38 -4z"/>
<path d="M1394 3295 c-3 -8 -3 -19 1 -25 10 -16 35 7 28 26 -7 18 -22 18 -29
-1z"/>
<path d="M2294 3295 c-3 -8 -3 -19 1 -25 10 -16 35 7 28 26 -7 18 -22 18 -29
-1z"/>
<path d="M2360 3036 c0 -2 9 -6 20 -9 11 -3 18 -1 14 4 -5 9 -34 13 -34 5z"/>
<path d="M2330 3021 c-8 -5 -27 -14 -43 -22 l-27 -12 26 -18 c16 -10 22 -19
15 -23 -13 -8 -15 -52 -3 -60 5 -3 7 8 4 23 -5 34 14 50 31 27 9 -12 16 -13
27 -5 13 9 13 10 -2 6 -9 -3 -19 1 -22 9 -4 10 4 14 32 16 l37 1 -33 4 c-37 5
-51 26 -32 48 14 17 12 18 -10 6z"/>
<path d="M1383 2994 c-3 -8 -1 -20 5 -26 16 -16 42 -2 42 22 0 24 -38 28 -47
4z"/>
<path d="M1835 2991 c-8 -14 12 -23 36 -16 17 6 19 9 8 16 -18 11 -36 11 -44
0z"/>
<path d="M2458 2979 c30 -34 28 -43 -5 -23 -27 16 -27 16 2 -10 17 -14 43 -36
60 -48 l30 -23 -34 48 c-19 26 -44 55 -55 64 -18 16 -18 14 2 -8z m43 -56 c13
-16 12 -17 -3 -4 -10 7 -18 15 -18 17 0 8 8 3 21 -13z"/>
<path d="M2393 2919 c3 -9 0 -23 -6 -30 -7 -8 -3 -6 8 3 16 15 17 20 6 30 -11
11 -13 10 -8 -3z"/>
<path d="M2325 2890 c10 -11 20 -20 23 -20 3 0 -3 9 -13 20 -10 11 -20 20 -23
20 -3 0 3 -9 13 -20z"/>
<path d="M2410 2883 c0 -5 10 -18 23 -29 l22 -19 -20 25 c-11 14 -21 27 -22
29 -2 2 -3 0 -3 -6z"/>
<path d="M2357 2856 c-3 -8 2 -20 11 -27 14 -11 15 -11 5 0 -6 7 -9 20 -6 27
3 8 3 14 0 14 -3 0 -7 -6 -10 -14z"/>
<path d="M2560 2856 c0 -2 8 -10 18 -17 15 -13 16 -12 3 4 -13 16 -21 21 -21
13z"/>
<path d="M3601 2822 c-42 -21 -69 -56 -77 -101 -6 -26 -4 -32 6 -26 9 6 11 0
5 -26 l-6 -34 22 33 22 33 17 -29 c10 -16 30 -39 46 -51 27 -21 29 -21 35 -4
5 14 10 8 19 -25 12 -37 11 -45 -1 -53 -8 -5 -9 -9 -2 -9 6 0 14 -14 18 -31
l7 -31 19 31 c23 39 43 47 75 33 37 -17 32 -58 -15 -112 -38 -44 -38 -45 -21
-70 11 -16 19 -53 23 -103 l6 -79 -34 -14 c-19 -8 -57 -14 -84 -14 -86 0 -132
31 -97 65 29 30 20 50 -24 53 -25 1 -60 15 -93 36 -73 47 -133 76 -155 76 -11
0 -46 18 -78 39 -33 22 -72 43 -87 46 -15 4 -34 16 -42 28 -10 15 -17 17 -27
9 -9 -7 -20 -7 -38 3 -14 8 -29 14 -35 14 -5 0 7 -9 29 -20 34 -18 38 -24 32
-49 -3 -16 -8 -76 -12 -135 -6 -94 -9 -104 -23 -93 -12 10 -12 8 2 -8 9 -11
17 -24 17 -27 0 -4 8 -15 19 -26 10 -10 20 -22 22 -27 2 -5 41 -42 85 -82 92
-81 89 -74 100 -244 l6 -108 -335 0 c-204 0 -338 -4 -342 -10 -3 -5 17 -96 45
-202 l50 -193 -35 -29 c-71 -57 -90 -132 -59 -235 24 -82 67 -121 214 -193
100 -49 132 -69 141 -90 6 -15 9 -33 6 -40 -3 -7 -6 -3 -6 8 -1 25 -36 72 -46
62 -4 -4 -2 -21 4 -39 6 -18 9 -34 7 -37 -3 -2 -10 14 -17 37 -7 25 -18 41
-28 42 -9 0 -25 2 -36 3 -161 23 -202 15 -221 -44 l-12 -35 -1098 -5 -1099 -5
1099 -3 1100 -2 30 -27 c28 -25 29 -26 10 -3 -34 40 -40 54 -20 47 13 -5 15
-3 8 10 -23 40 14 73 83 73 44 0 65 -29 65 -93 0 -61 -13 -66 -80 -32 -29 14
-49 22 -46 17 12 -20 116 -60 230 -88 104 -25 115 -30 85 -35 l-34 -6 32 -2
c22 -1 50 11 90 38 48 32 62 37 80 28 15 -7 41 -6 84 2 37 8 86 10 121 6 50
-6 67 -14 113 -52 49 -40 59 -44 98 -40 l42 4 -49 1 c-27 1 -47 4 -45 6 3 3
54 12 114 21 136 19 236 48 260 75 14 16 20 17 27 8 5 -9 8 -3 8 14 l0 28 343
3 342 2 -350 3 -350 2 50 33 c29 18 58 47 67 67 26 51 23 127 -6 184 -21 42
-23 56 -18 134 2 48 10 91 16 95 6 5 -2 6 -19 3 -21 -4 -449 -36 -481 -36 -3
0 -34 104 -34 113 0 2 26 7 58 10 31 4 80 13 107 21 28 7 96 26 151 41 l102
28 -6 123 -5 123 28 7 c35 9 149 -2 176 -17 13 -6 25 -7 30 -2 16 16 16 331 0
383 -21 73 -69 110 -196 155 -60 21 -113 43 -117 49 -4 6 -8 34 -8 63 l0 52
39 11 c65 17 141 127 141 202 0 10 5 18 10 18 24 0 5 84 -27 118 -10 10 -27
36 -38 58 -11 21 -38 50 -60 65 -45 30 -91 47 -81 30 4 -6 -9 -4 -28 4 -47 20
-113 19 -155 -3z m-267 -593 c-9 -24 -24 -89 -34 -144 -12 -68 -19 -87 -19
-60 -1 63 52 265 66 252 2 -2 -4 -24 -13 -48z m-100 -164 c9 -14 13 -25 8 -25
-12 0 -61 103 -68 142 -3 21 4 11 19 -29 13 -34 32 -74 41 -88z m290 131 c-8
-22 13 -54 48 -72 35 -18 129 -24 193 -11 28 5 35 5 25 -2 -22 -15 -114 -24
-165 -16 -56 8 -115 55 -115 91 0 13 4 24 10 24 5 0 7 -6 4 -14z m339 -217
c-23 -47 -27 -135 -9 -213 9 -39 14 -83 10 -102 -4 -22 -2 -34 5 -34 6 0 11
-5 11 -11 0 -8 -5 -7 -16 2 -12 10 -14 23 -10 52 4 22 3 36 -2 33 -21 -12 -67
67 -76 129 -5 34 -3 31 13 -17 10 -31 29 -69 41 -85 l23 -28 -9 40 c-21 94 -4
265 26 265 5 0 2 -14 -7 -31z m-338 -373 c41 -61 105 -127 154 -157 39 -24 41
-34 2 -14 -40 20 -121 100 -159 157 -39 57 -102 186 -102 208 0 8 16 -19 34
-62 19 -42 51 -101 71 -132z m-891 62 c5 -10 7 -10 12 0 7 14 34 16 34 2 0
-15 80 -13 81 3 0 10 2 10 6 0 3 -10 72 -13 293 -13 l287 0 32 -120 c17 -66
45 -175 63 -242 17 -67 33 -117 35 -111 2 6 -5 48 -17 93 -12 45 -19 84 -17
87 4 3 57 -195 57 -212 0 -4 -4 -3 -10 0 -5 3 -10 2 -10 -4 0 -5 8 -12 18 -14
9 -3 -155 -5 -365 -6 -211 0 -383 0 -383 2 0 4 -129 506 -136 530 -6 19 11 24
20 5z m734 -5 c13 -25 34 -114 29 -120 -3 -2 -10 20 -17 49 -7 29 -19 61 -28
71 -9 10 -11 17 -4 17 6 0 15 -8 20 -17z m39 -155 c-3 -8 -6 -5 -6 6 -1 11 2
17 5 13 3 -3 4 -12 1 -19z m10 -40 c-3 -8 -6 -5 -6 6 -1 11 2 17 5 13 3 -3 4
-12 1 -19z m10 -40 c-3 -8 -6 -5 -6 6 -1 11 2 17 5 13 3 -3 4 -12 1 -19z m10
-40 c-3 -8 -6 -5 -6 6 -1 11 2 17 5 13 3 -3 4 -12 1 -19z m-588 -683 c0 -11
-6 -2 -14 20 -18 50 -18 57 0 25 8 -14 14 -34 14 -45z m30 6 c-1 -24 -2 -24
-8 5 -4 17 -11 37 -15 45 -4 8 0 5 8 -5 9 -11 16 -31 15 -45z m131 5 c0 -39
-6 -30 -13 19 -4 27 -3 35 3 25 5 -8 10 -28 10 -44z m880 -10 c24 -30 7 -60
-50 -89 -70 -35 -94 -33 -98 10 -2 18 2 41 8 52 18 35 117 54 140 27z m-844
-77 c9 -16 -21 -43 -40 -36 -21 8 -20 34 2 40 28 8 31 7 38 -4z m478 -15 c9
-3 16 -13 16 -21 0 -21 -54 -13 -58 10 -4 18 13 22 42 11z"/>
<path d="M3013 1448 c-5 -7 -15 -25 -23 -41 -12 -25 -11 -29 10 -52 29 -31 64
-32 84 -3 22 32 20 55 -9 83 -27 28 -48 32 -62 13z m57 -18 c22 -22 25 -42 10
-71 -14 -25 -55 -24 -74 2 -13 19 -13 25 2 55 20 39 34 42 62 14z"/>
<path d="M2600 2826 c0 -2 14 -14 30 -26 17 -12 30 -19 30 -16 0 2 -13 14 -30
26 -16 12 -30 19 -30 16z"/>
<path d="M2404 2806 c11 -9 24 -16 30 -16 12 0 7 5 -24 19 -24 11 -24 11 -6
-3z"/>
<path d="M2460 2783 c8 -3 26 -15 40 -27 l25 -21 -24 28 c-14 15 -32 27 -40
26 -14 0 -14 -1 -1 -6z"/>
<path d="M2670 2776 c0 -2 8 -10 18 -17 15 -13 16 -12 3 4 -13 16 -21 21 -21
13z"/>
<path d="M2710 2746 c0 -2 14 -14 30 -26 17 -12 30 -19 30 -16 0 2 -13 14 -30
26 -16 12 -30 19 -30 16z"/>
<path d="M2550 2680 c6 -11 13 -20 16 -20 2 0 0 9 -6 20 -6 11 -13 20 -16 20
-2 0 0 -9 6 -20z"/>
<path d="M2780 2696 c0 -2 8 -10 18 -17 15 -13 16 -12 3 4 -13 16 -21 21 -21
13z"/>
<path d="M2835 2650 c10 -11 20 -20 23 -20 3 0 -3 9 -13 20 -10 11 -20 20 -23
20 -3 0 3 -9 13 -20z"/>
<path d="M2579 2635 c5 -11 17 -29 26 -40 l16 -20 -10 20 c-5 11 -17 29 -26
40 l-16 20 10 -20z"/>
<path d="M2930 2565 c30 -30 57 -55 59 -55 3 0 -19 25 -49 55 -30 30 -57 55
-59 55 -3 0 19 -25 49 -55z"/>
<path d="M3517 2608 c-2 -7 -1 -22 2 -33 4 -18 6 -18 12 5 7 24 7 24 8 3 1
-13 6 -23 11 -23 6 0 12 0 15 0 3 0 5 3 4 8 -1 4 -5 6 -9 5 -4 -1 -11 9 -14
22 -7 27 -22 33 -29 13z"/>
<path d="M3498 2559 c-3 -19 0 -25 14 -26 9 -1 21 3 24 9 4 7 2 8 -5 4 -7 -4
-14 2 -20 15 l-8 23 -5 -25z"/>
<path d="M2638 2545 c23 -34 127 -135 139 -135 4 0 -9 14 -29 30 -20 17 -58
54 -84 83 -26 29 -38 38 -26 22z"/>
<path d="M3598 2553 c7 -3 16 -2 19 1 4 3 -2 6 -13 5 -11 0 -14 -3 -6 -6z"/>
<path d="M3638 2543 c6 -2 18 -2 25 0 6 3 1 5 -13 5 -14 0 -19 -2 -12 -5z"/>
<path d="M3466 2478 c10 -14 21 -24 23 -22 3 3 -6 15 -18 27 l-24 22 19 -27z"/>
<path d="M3477 2419 c6 -23 9 -24 16 -5 3 8 0 17 -7 19 -10 4 -12 -1 -9 -14z"/>
<path d="M3528 2413 c6 -2 18 -2 25 0 6 3 1 5 -13 5 -14 0 -19 -2 -12 -5z"/>
<path d="M2790 2407 c0 -3 12 -12 26 -22 15 -9 23 -12 20 -6 -7 11 -46 35 -46
28z"/>
<path d="M3474 2356 c1 -26 6 -41 16 -43 10 -3 11 -2 3 4 -6 4 -13 24 -16 43
-4 34 -4 33 -3 -4z"/>
<path d="M2862 2335 c15 -16 29 -27 31 -24 3 2 -10 15 -27 28 l-31 24 27 -28z"/>
<path d="M3635 2325 c-16 -8 -52 -15 -80 -16 -38 -2 -42 -3 -17 -6 18 -3 36
-11 39 -18 4 -12 9 -12 31 -1 15 8 36 23 46 35 22 24 21 24 -19 6z"/>
<path d="M2911 2308 c2 -2 27 -23 54 -48 l50 -45 -45 48 c-24 26 -48 47 -54
47 -5 0 -7 -1 -5 -2z"/>
<path d="M922 1818 l3 -173 271 -3 272 -2 4 167 c2 93 3 171 1 176 -3 4 -128
7 -279 7 l-274 0 2 -172z m203 72 c4 -6 -20 -10 -64 -10 -41 0 -71 4 -71 10 0
6 28 10 64 10 36 0 68 -4 71 -10z m118 -37 c-34 -2 -93 -2 -130 0 -37 2 -9 3
62 3 72 0 102 -1 68 -3z m-160 -40 c-13 -2 -33 -2 -45 0 -13 2 -3 4 22 4 25 0
35 -2 23 -4z m100 -40 c-23 -2 -64 -2 -90 0 -26 2 -7 3 42 3 50 0 71 -1 48 -3z
m-85 -40 c-21 -2 -57 -2 -80 0 -24 2 -7 4 37 4 44 0 63 -2 43 -4z"/>
<path d="M4103 1550 c0 -30 2 -43 4 -27 2 15 2 39 0 55 -2 15 -4 2 -4 -28z"/>
<path d="M4093 1430 c0 -25 2 -35 4 -22 2 12 2 32 0 45 -2 12 -4 2 -4 -23z"/>
<path d="M4082 1340 c0 -19 2 -27 5 -17 2 9 2 25 0 35 -3 9 -5 1 -5 -18z"/>
<path d="M4071 1274 c0 -11 3 -14 6 -6 3 7 2 16 -1 19 -3 4 -6 -2 -5 -13z"/>
<path d="M4056 1233 c-6 -14 -5 -15 5 -6 7 7 10 15 7 18 -3 3 -9 -2 -12 -12z"/>
<path d="M2738 603 c7 -3 16 -2 19 1 4 3 -2 6 -13 5 -11 0 -14 -3 -6 -6z"/>
<path d="M2778 593 c7 -3 16 -2 19 1 4 3 -2 6 -13 5 -11 0 -14 -3 -6 -6z"/>
<path d="M3788 563 c6 -2 18 -2 25 0 6 3 1 5 -13 5 -14 0 -19 -2 -12 -5z"/>
<path d="M2908 553 c7 -3 16 -2 19 1 4 3 -2 6 -13 5 -11 0 -14 -3 -6 -6z"/>
<path d="M3718 553 c6 -2 18 -2 25 0 6 3 1 5 -13 5 -14 0 -19 -2 -12 -5z"/>
<path d="M3618 533 c6 -2 18 -2 25 0 6 3 1 5 -13 5 -14 0 -19 -2 -12 -5z"/>
</g>
</svg>
