<svg width="89" height="109" viewBox="0 0 89 109" fill="none" xmlns="http://www.w3.org/2000/svg">
<path d="M0 71.2101C0 63.4638 1.27731 56.8712 3.83194 51.4324C6.46898 46.0759 10.2597 41.9143 15.2042 38.9476C20.231 35.981 26.3292 34.3328 33.4986 34.0032C36.8773 33.9208 40.5032 33.8796 44.3764 33.8796C48.2495 33.8796 51.9579 33.9208 55.5014 34.0032C62.5884 34.3328 68.6042 35.981 73.5486 38.9476C78.5755 41.9967 82.4074 46.2407 85.0444 51.6796C87.6815 57.1185 89 63.6287 89 71.2101C89 76.7314 88.2995 81.7583 86.8986 86.2907C85.4977 90.8231 83.4787 94.7374 80.8417 98.0337C78.2046 101.33 75.1144 103.885 71.5708 105.698C68.0273 107.511 64.0718 108.499 59.7042 108.664C58.9625 108.664 58.3444 108.376 57.85 107.799C57.3556 107.305 57.1083 106.687 57.1083 105.945V91.8532C57.1083 90.8643 57.3556 90.0814 57.85 89.5046C58.3444 88.9277 59.1685 88.4745 60.3222 88.1449C65.1843 86.9087 68.5218 84.8486 70.3347 81.9643C72.1477 79.08 73.0542 75.4953 73.0542 71.2101C73.0542 66.1009 71.6532 62.0629 68.8514 59.0962C66.0495 56.1296 61.3935 54.5226 54.8833 54.2754C48.1259 54.0282 41.2037 54.0282 34.1167 54.2754C27.6065 54.5226 22.9505 56.1296 20.1486 59.0962C17.3468 62.0629 15.9458 66.1009 15.9458 71.2101C15.9458 75.4953 16.8523 79.08 18.6653 81.9643C20.5606 84.931 23.8981 86.9912 28.6778 88.1449C29.9139 88.4745 30.738 88.9277 31.15 89.5046C31.6444 90.0814 31.8917 90.8643 31.8917 91.8532V105.945C31.8917 106.687 31.6444 107.305 31.15 107.799C30.6556 108.376 30.0375 108.664 29.2958 108.664C24.9282 108.499 20.9727 107.511 17.4292 105.698C13.8856 103.885 10.7954 101.33 8.15833 98.0337C5.5213 94.7374 3.50231 90.8231 2.10139 86.2907C0.700463 81.7583 0 76.7314 0 71.2101Z" fill="url(#paint0_linear_43_297)" fill-opacity="0.9"/>
<path d="M6.74365 70.8693C6.74365 64.3881 7.82779 58.8721 9.99607 54.3214C12.2343 49.8397 15.4518 46.3578 19.6484 43.8756C23.915 41.3934 29.0909 40.0144 35.1761 39.7386C38.0438 39.6697 41.1214 39.6352 44.4088 39.6352C47.6962 39.6352 50.8437 39.6697 53.8513 39.7386C59.8665 40.0144 64.9725 41.3934 69.1692 43.8756C73.4358 46.4267 76.6882 49.9776 78.9264 54.5283C81.1647 59.079 82.2838 64.526 82.2838 70.8693C82.2838 75.4889 81.6892 79.6949 80.5002 83.4871C79.3111 87.2793 77.5975 90.5544 75.3593 93.3124C73.121 96.0704 70.4981 98.2078 67.4905 99.7247C64.4829 101.242 61.1255 102.069 57.4185 102.207C56.789 102.207 56.2644 101.966 55.8447 101.483C55.4251 101.069 55.2152 100.552 55.2152 99.9315V88.1412C55.2152 87.3138 55.4251 86.6588 55.8447 86.1761C56.2644 85.6935 56.9638 85.3143 57.9431 85.0385C62.0698 84.0042 64.9026 82.2805 66.4413 79.8672C67.9801 77.454 68.7495 74.4547 68.7495 70.8693C68.7495 66.5945 67.5604 63.2159 65.1823 60.7337C62.8042 58.2516 58.8524 56.907 53.3267 56.7002C47.5913 56.4934 41.7159 56.4934 35.7007 56.7002C30.1751 56.907 26.2232 58.2516 23.8451 60.7337C21.467 63.2159 20.2779 66.5945 20.2779 70.8693C20.2779 74.4547 21.0473 77.454 22.5861 79.8672C24.1948 82.3494 27.0276 84.0732 31.0844 85.0385C32.1335 85.3143 32.833 85.6935 33.1827 86.1761C33.6024 86.6588 33.8122 87.3138 33.8122 88.1412V99.9315C33.8122 100.552 33.6024 101.069 33.1827 101.483C32.763 101.966 32.2384 102.207 31.6089 102.207C27.9019 102.069 24.5445 101.242 21.5369 99.7247C18.5293 98.2078 15.9064 96.0704 13.6682 93.3124C11.4299 90.5544 9.7163 87.2793 8.52724 83.4871C7.33818 79.6949 6.74365 75.4889 6.74365 70.8693Z" fill="url(#paint1_linear_43_297)" fill-opacity="0.9"/>
<g filter="url(#filter0_i_43_297)">
<path d="M44.7303 69.2544L4.03365 17.7343L31.7206 33.9921L44.9884 1.218L58.4318 36.1384L86.6706 11.5075L44.7303 69.2544Z" fill="url(#paint2_linear_43_297)"/>
</g>
<defs>
<filter id="filter0_i_43_297" x="4.03369" y="1.21802" width="82.6367" height="72.0364" filterUnits="userSpaceOnUse" color-interpolation-filters="sRGB">
<feFlood flood-opacity="0" result="BackgroundImageFix"/>
<feBlend mode="normal" in="SourceGraphic" in2="BackgroundImageFix" result="shape"/>
<feColorMatrix in="SourceAlpha" type="matrix" values="0 0 0 0 0 0 0 0 0 0 0 0 0 0 0 0 0 0 127 0" result="hardAlpha"/>
<feOffset dy="4"/>
<feGaussianBlur stdDeviation="2"/>
<feComposite in2="hardAlpha" operator="arithmetic" k2="-1" k3="1"/>
<feColorMatrix type="matrix" values="0 0 0 0 0.281111 0 0 0 0 0.733333 0 0 0 0 0.733333 0 0 0 0.15 0"/>
<feBlend mode="normal" in2="shape" result="effect1_innerShadow_43_297"/>
</filter>
<linearGradient id="paint0_linear_43_297" x1="42.9987" y1="11.7631" x2="39.1838" y2="126.614" gradientUnits="userSpaceOnUse">
<stop stop-color="#FDFDFD"/>
<stop offset="1" stop-color="#171720"/>
</linearGradient>
<linearGradient id="paint1_linear_43_297" x1="43.5694" y1="20.0396" x2="35.4671" y2="123.477" gradientUnits="userSpaceOnUse">
<stop/>
<stop offset="0.932292" stop-color="white"/>
<stop offset="1" stop-color="#28393D"/>
</linearGradient>
<linearGradient id="paint2_linear_43_297" x1="45.7742" y1="0.886716" x2="43.7145" y2="69.2238" gradientUnits="userSpaceOnUse">
<stop stop-color="white"/>
<stop offset="1" stop-color="#A6A6A6"/>
</linearGradient>
</defs>
</svg>
