<svg width="64" height="64" viewBox="0 0 64 64" fill="none" xmlns="http://www.w3.org/2000/svg">
<g clip-path="url(#clip0_151_579)">
<mask id="mask0_151_579" style="mask-type:luminance" maskUnits="userSpaceOnUse" x="0" y="0" width="64" height="64">
<path d="M64 0H0V64H64V0Z" fill="white"/>
</mask>
<g mask="url(#mask0_151_579)">
<path d="M32 64C49.6731 64 64 49.6731 64 32C64 14.3269 49.6731 0 32 0C14.3269 0 0 14.3269 0 32C0 49.6731 14.3269 64 32 64Z" fill="white"/>
<path d="M36.5502 14.5985C30.3848 16.2217 26.173 20.1942 20.572 29.549C15.1011 38.6048 12.4525 41.2104 7.7632 41.9366C6.67772 42.0648 5.46196 42.321 5.0712 42.4064C4.07254 42.7054 3.68178 44.0296 4.28964 45.1402C4.94094 46.2936 8.63158 46.2936 11.8446 45.0976C16.23 43.517 19.0957 40.2706 25.1744 30.0188C29.69 22.4154 33.6846 19.1691 39.5896 18.2293C45.2342 17.375 48.4472 18.9555 49.2288 23.099C50.0538 27.3278 45.0604 28.3102 44.0618 24.0814C43.3238 21.0486 38.808 22.031 36.5938 25.7472C35.5082 27.584 35.3346 28.2676 35.3346 31.2576C35.3346 33.9488 35.5516 35.102 36.3332 36.6826C39.1988 42.3638 46.2762 45.9518 54.743 45.9946C57.6956 45.9946 58.1732 45.8664 58.564 45.1402C59.2152 43.9442 58.7376 42.62 57.5652 42.4064C57.0442 42.321 54.9602 42.022 52.9194 41.8084C46.363 41.0396 42.1514 38.8184 40.2844 35.1874C39.5462 33.8206 39.416 32.8808 39.5462 30.7878C39.633 29.2928 39.8502 27.9686 40.0238 27.7976C40.1976 27.6268 40.979 28.054 41.7606 28.8228C44.279 31.215 46.667 31.5994 49.7064 30.147C52.2682 28.951 53.3536 27.1142 53.3536 23.9106C53.3536 19.4254 50.9656 16.0508 46.7538 14.5558C44.5394 13.7869 39.5462 13.8296 36.5502 14.5985Z" fill="url(#paint0_linear_151_579)"/>
</g>
</g>
<defs>
<linearGradient id="paint0_linear_151_579" x1="31.4286" y1="46" x2="31.4286" y2="14" gradientUnits="userSpaceOnUse">
<stop stop-color="#1D456A"/>
<stop offset="1" stop-color="#266CAC" stop-opacity="0.76"/>
</linearGradient>
<clipPath id="clip0_151_579">
<rect width="64" height="64" fill="white"/>
</clipPath>
</defs>
</svg>
