<?xml version="1.0" standalone="no"?>
<!DOCTYPE svg PUBLIC "-//W3C//DTD SVG 20010904//EN"
 "http://www.w3.org/TR/2001/REC-SVG-20010904/DTD/svg10.dtd">
<svg version="1.0" xmlns="http://www.w3.org/2000/svg"
 width="1200.000000pt" height="1200.000000pt" viewBox="0 0 1200.000000 1200.000000"
 preserveAspectRatio="xMidYMid meet">
<metadata>
Created by potrace 1.16, written by Peter Selinger 2001-2019
</metadata>
<g transform="translate(0.000000,1200.000000) scale(0.100000,-0.100000)"
fill="#000000" stroke="none">
<path d="M2670 11989 c-944 -35 -1444 -147 -1840 -410 -127 -84 -325 -282
-409 -409 -268 -403 -374 -888 -411 -1880 -13 -355 -13 -6225 0 -6580 37 -994
143 -1477 411 -1880 84 -127 282 -325 409 -409 403 -268 888 -374 1880 -411
355 -13 6225 -13 6580 0 994 37 1477 143 1880 411 127 84 325 282 409 409 268
403 374 888 411 1880 13 355 13 6225 0 6580 -37 994 -143 1477 -411 1880 -84
127 -282 325 -409 409 -403 268 -888 374 -1880 411 -312 12 -6307 11 -6620 -1z
m5665 -3654 l25 -24 0 -2033 0 -2033 -1002 -1002 c-552 -552 -1010 -1003
-1018 -1003 -40 0 -40 -12 -40 1012 l0 988 -1002 0 c-773 1 -1007 3 -1019 13
-39 30 -39 25 -39 1051 l0 996 -988 0 c-1024 0 -1012 0 -1012 39 0 9 451 467
1002 1018 l1003 1003 2033 0 2033 0 24 -25z"/>
</g>
</svg>
