<?xml version="1.0" standalone="no"?>
<!DOCTYPE svg PUBLIC "-//W3C//DTD SVG 20010904//EN"
 "http://www.w3.org/TR/2001/REC-SVG-20010904/DTD/svg10.dtd">
<svg version="1.0" xmlns="http://www.w3.org/2000/svg"
 width="64.000000pt" height="64.000000pt" viewBox="0 0 64.000000 64.000000"
 preserveAspectRatio="xMidYMid meet">
<metadata>
Created by potrace 1.16, written by Peter Selinger 2001-2019
</metadata>
<g transform="translate(0.000000,64.000000) scale(0.100000,-0.100000)"
fill="#000000" stroke="none">
<path d="M330 630 c-36 -4 -101 -5 -145 -3 -92 5 -118 -5 -152 -56 -29 -43
-30 -110 -3 -217 38 -146 83 -209 135 -186 15 7 26 8 30 2 4 -6 28 -10 55 -10
l49 0 4 -43 c3 -37 4 -35 5 15 l2 58 -26 -10 c-37 -14 -52 -12 -73 9 -17 17
-21 18 -32 5 -17 -21 -43 -17 -68 10 -32 34 -72 159 -78 246 -9 126 28 166
144 157 32 -2 112 0 179 6 141 11 182 6 225 -30 31 -26 31 -28 27 -94 -4 -50
-15 -88 -42 -144 -20 -43 -36 -79 -36 -81 0 -2 18 -4 40 -4 22 0 40 -3 40 -7
-1 -26 -45 -53 -88 -53 -28 0 -31 -4 -37 -42 -15 -98 -25 -119 -60 -134 -41
-17 -91 -3 -101 28 -3 11 -8 17 -11 15 -6 -7 16 -50 31 -59 18 -12 65 -9 95 7
33 16 61 77 61 130 0 31 3 35 25 35 15 0 39 7 55 15 57 30 63 85 9 85 l-29 0
19 37 c28 56 51 141 51 189 0 32 -7 51 -27 75 -49 57 -103 67 -273 49z"/>
<path d="M448 579 c18 -12 43 -40 56 -63 23 -38 24 -47 17 -134 -5 -76 -4 -90
6 -76 29 39 56 131 57 188 1 57 -1 61 -33 83 -25 17 -48 23 -85 23 l-51 0 33
-21z"/>
<path d="M75 565 c-21 -20 -25 -34 -25 -82 0 -96 61 -283 92 -283 7 0 27 14
45 32 31 30 32 32 15 51 -27 30 -23 197 6 253 12 23 18 44 15 48 -4 3 -33 6
-65 6 -49 0 -63 -4 -83 -25z"/>
<path d="M265 568 c-25 -19 -55 -73 -55 -97 0 -7 9 -7 26 -1 35 14 41 13 64
-10 16 -16 20 -33 20 -81 0 -33 -5 -69 -11 -80 -8 -15 -6 -25 11 -46 18 -23
20 -35 14 -98 -8 -93 2 -115 56 -115 48 0 54 9 73 119 8 45 19 87 24 92 7 7
-1 32 -24 74 -46 86 -44 135 6 151 l33 11 -32 37 c-18 20 -46 44 -61 52 -42
21 -111 18 -144 -8z"/>
</g>
</svg>
