<svg width="35" height="42" viewBox="0 0 126 126" fill="none" xmlns="http://www.w3.org/2000/svg">
<g clip-path="url(#clip0_194_3)">
<path opacity="0.6" fill-rule="evenodd" clip-rule="evenodd" d="M15.75 21H110.25C111.642 21 112.978 21.5531 113.962 22.5377C114.947 23.5223 115.5 24.8576 115.5 26.25V31.5H10.5V26.25C10.5 24.8576 11.0531 23.5223 12.0377 22.5377C13.0223 21.5531 14.3576 21 15.75 21Z" fill="#00102E"/>
<path opacity="0.3" fill-rule="evenodd" clip-rule="evenodd" d="M26.25 10.5H99.75C101.142 10.5 102.478 11.0531 103.462 12.0377C104.447 13.0223 105 14.3576 105 15.75V21H21V15.75C21 14.3576 21.5531 13.0223 22.5377 12.0377C23.5223 11.0531 24.8576 10.5 26.25 10.5Z" fill="#00102E"/>
<path fill-rule="evenodd" clip-rule="evenodd" d="M5.25 31.5H120.75C122.142 31.5 123.478 32.0531 124.462 33.0377C125.447 34.0223 126 35.3576 126 36.75V115.5C126 116.892 125.447 118.228 124.462 119.212C123.478 120.197 122.142 120.75 120.75 120.75H5.25C3.85761 120.75 2.52226 120.197 1.53769 119.212C0.553123 118.228 0 116.892 0 115.5V36.75C0 35.3576 0.553123 34.0223 1.53769 33.0377C2.52226 32.0531 3.85761 31.5 5.25 31.5ZM5.25 42V57.75H21V42H5.25ZM5.25 68.25V84H21V68.25H5.25ZM5.25 94.5V110.25H21V94.5H5.25ZM105 42V57.75H120.75V42H105ZM105 68.25V84H120.75V68.25H105ZM105 94.5V110.25H120.75V94.5H105Z" fill="#00102E"/>
<path d="M76.2188 85.6094C80.9688 85.6094 84.9062 85.2031 88.0312 84.3906L88.2656 84.7188L84.8438 95.5938H76.2188V112H64.2656V95.5938H35.3906L35.2031 92.125L61.125 49.75L76.2188 49.6562V85.6094ZM64.2656 85.6094V63.3906L51.4688 85.6094H64.2656Z" fill="white"/>
<path d="M64.944 63.712V83.872H68.832V85.888H64.944V94H61.392V85.888H49.632V84.4L64.08 63.376L64.944 63.712ZM52.416 83.872H61.392V70.816L52.416 83.872Z" fill="#173D85"/>
</g>
<defs>
<clipPath id="clip0_194_3">
<rect width="126" height="126" fill="white"/>
</clipPath>
</defs>
</svg>
