<svg width="89" height="108" viewBox="0 0 89 108" fill="none" xmlns="http://www.w3.org/2000/svg">
<path d="M0 70.7748C0 63.0759 1.27731 56.5236 3.83194 51.118C6.46898 45.7942 10.2597 41.6581 15.2042 38.7096C20.231 35.761 26.3292 34.123 33.4986 33.7953C36.8773 33.7134 40.5032 33.6725 44.3764 33.6725C48.2495 33.6725 51.9579 33.7134 55.5014 33.7953C62.5884 34.123 68.6042 35.761 73.5486 38.7096C78.5755 41.74 82.4074 45.958 85.0444 51.3637C87.6815 56.7693 89 63.2397 89 70.7748C89 76.2624 88.2995 81.2585 86.8986 85.7632C85.4977 90.2679 83.4787 94.1583 80.8417 97.4344C78.2046 100.711 75.1144 103.25 71.5708 105.051C68.0273 106.853 64.0718 107.836 59.7042 108C58.9625 108 58.3444 107.713 57.85 107.14C57.3556 106.649 57.1083 106.034 57.1083 105.297V91.2917C57.1083 90.3088 57.3556 89.5308 57.85 88.9574C58.3444 88.3841 59.1685 87.9336 60.3222 87.606C65.1843 86.3775 68.5218 84.3299 70.3347 81.4632C72.1477 78.5966 73.0542 75.0338 73.0542 70.7748C73.0542 65.6968 71.6532 61.6835 68.8514 58.735C66.0495 55.7865 61.3935 54.1893 54.8833 53.9436C48.1259 53.6979 41.2037 53.6979 34.1167 53.9436C27.6065 54.1893 22.9505 55.7865 20.1486 58.735C17.3468 61.6835 15.9458 65.6968 15.9458 70.7748C15.9458 75.0338 16.8523 78.5966 18.6653 81.4632C20.5606 84.4118 23.8981 86.4594 28.6778 87.606C29.9139 87.9336 30.738 88.3841 31.15 88.9574C31.6444 89.5308 31.8917 90.3088 31.8917 91.2917V105.297C31.8917 106.034 31.6444 106.649 31.15 107.14C30.6556 107.713 30.0375 108 29.2958 108C24.9282 107.836 20.9727 106.853 17.4292 105.051C13.8856 103.25 10.7954 100.711 8.15833 97.4344C5.5213 94.1583 3.50231 90.2679 2.10139 85.7632C0.700463 81.2585 0 76.2624 0 70.7748Z" fill="url(#paint0_linear_43_305)" fill-opacity="0.9"/>
<path d="M6.74365 70.4361C6.74365 63.9944 7.82779 58.5122 9.99607 53.9893C12.2343 49.535 15.4518 46.0744 19.6484 43.6074C23.915 41.1403 29.0909 39.7698 35.1761 39.4957C38.0438 39.4271 41.1214 39.3929 44.4088 39.3929C47.6962 39.3929 50.8437 39.4271 53.8513 39.4957C59.8665 39.7698 64.9725 41.1403 69.1692 43.6074C73.4358 46.1429 76.6882 49.6721 78.9264 54.1949C81.1647 58.7178 82.2838 64.1315 82.2838 70.4361C82.2838 75.0274 81.6892 79.2077 80.5002 82.9767C79.3111 86.7457 77.5975 90.0008 75.3593 92.7419C73.121 95.4831 70.4981 97.6074 67.4905 99.115C64.4829 100.623 61.1255 101.445 57.4185 101.582C56.789 101.582 56.2644 101.342 55.8447 100.863C55.4251 100.451 55.2152 99.9374 55.2152 99.3206V87.6023C55.2152 86.78 55.4251 86.129 55.8447 85.6493C56.2644 85.1696 56.9638 84.7927 57.9431 84.5186C62.0698 83.4907 64.9026 81.7775 66.4413 79.379C67.9801 76.9805 68.7495 73.9995 68.7495 70.4361C68.7495 66.1873 67.5604 62.8295 65.1823 60.3625C62.8042 57.8954 58.8524 56.5591 53.3267 56.3536C47.5913 56.148 41.7159 56.148 35.7007 56.3536C30.1751 56.5591 26.2232 57.8954 23.8451 60.3625C21.467 62.8295 20.2779 66.1873 20.2779 70.4361C20.2779 73.9995 21.0473 76.9805 22.5861 79.379C24.1948 81.846 27.0276 83.5592 31.0844 84.5186C32.1335 84.7927 32.833 85.1696 33.1827 85.6493C33.6024 86.129 33.8122 86.78 33.8122 87.6023V99.3206C33.8122 99.9374 33.6024 100.451 33.1827 100.863C32.763 101.342 32.2384 101.582 31.6089 101.582C27.9019 101.445 24.5445 100.623 21.5369 99.115C18.5293 97.6074 15.9064 95.4831 13.6682 92.7419C11.4299 90.0008 9.7163 86.7457 8.52724 82.9767C7.33818 79.2077 6.74365 75.0274 6.74365 70.4361Z" fill="url(#paint1_linear_43_305)" fill-opacity="0.9"/>
<g filter="url(#filter0_i_43_305)">
<path d="M44.7428 68.8392L4.03698 17.626L31.7266 33.7897L44.9881 1.21799L58.438 35.9278L86.6718 11.4524L44.7428 68.8392Z" fill="url(#paint2_linear_43_305)"/>
</g>
<defs>
<filter id="filter0_i_43_305" x="4.03711" y="1.21802" width="82.6348" height="71.6212" filterUnits="userSpaceOnUse" color-interpolation-filters="sRGB">
<feFlood flood-opacity="0" result="BackgroundImageFix"/>
<feBlend mode="normal" in="SourceGraphic" in2="BackgroundImageFix" result="shape"/>
<feColorMatrix in="SourceAlpha" type="matrix" values="0 0 0 0 0 0 0 0 0 0 0 0 0 0 0 0 0 0 127 0" result="hardAlpha"/>
<feOffset dy="4"/>
<feGaussianBlur stdDeviation="2"/>
<feComposite in2="hardAlpha" operator="arithmetic" k2="-1" k3="1"/>
<feColorMatrix type="matrix" values="0 0 0 0 0.281111 0 0 0 0 0.733333 0 0 0 0 0.733333 0 0 0 0.15 0"/>
<feBlend mode="normal" in2="shape" result="effect1_innerShadow_43_305"/>
</filter>
<linearGradient id="paint0_linear_43_305" x1="42.9987" y1="11.6912" x2="39.2302" y2="125.841" gradientUnits="userSpaceOnUse">
<stop stop-color="#6D6D74"/>
<stop offset="1"/>
</linearGradient>
<linearGradient id="paint1_linear_43_305" x1="43.5694" y1="19.917" x2="35.5652" y2="122.73" gradientUnits="userSpaceOnUse">
<stop offset="0.385417" stop-color="#383838"/>
<stop offset="1" stop-color="#2E303D"/>
<stop offset="1" stop-color="#010101"/>
</linearGradient>
<linearGradient id="paint2_linear_43_305" x1="45.7739" y1="0.888875" x2="43.7267" y2="68.8086" gradientUnits="userSpaceOnUse">
<stop stop-color="#D8D9FF"/>
<stop offset="1" stop-color="#D3D3D3"/>
</linearGradient>
</defs>
</svg>
